<svg preserveAspectRatio="none" overflow="visible" style="display: block;" width="33.0143" height="33.3987" viewBox="0 0 33.0143 33.3987" fill="none" xmlns="http://www.w3.org/2000/svg">
<g id="7l_down">
<path id="Vector" d="M32.1979 11.8739C31.184 8.09694 30.4853 3.69748 27.1128 1.234C25.4212 -0.179739 23.1151 -0.132263 21.0558 0.17897C16.0495 1.234 10.5494 0.289744 5.94759 2.91149C2.10749 4.83691 -0.182909 9.20472 0.0114598 13.4618C-0.083098 16.917 2.01819 20.0082 1.74502 23.4845C1.74502 26.2381 0.94653 29.3241 2.53825 31.7981C4.11421 33.6022 6.7986 33.5495 8.97343 33.2171C11.1483 32.8848 13.528 32.5947 15.7448 31.9933C17.8461 30.9383 19.4221 29.0392 21.4918 27.9472C24.7593 25.911 28.8463 25.1356 31.5202 22.2027C33.8894 19.2591 32.9018 15.2447 32.1979 11.8739ZM16.1913 9.93797C14.7698 11.0043 13.0486 11.5915 11.2743 11.6155C10.2973 11.2568 9.36481 10.7859 8.4954 10.2123C11.0642 10.207 13.633 10.2281 16.1913 9.95906V9.93797ZM7.62336 16.669C6.26278 16.7218 6.07892 18.336 5.49056 19.2538C5.26467 18.1355 4.60276 16.5688 5.91081 15.8672C8.35355 14.7858 11.2638 15.4083 13.5385 16.6585C11.5633 16.7429 9.58281 16.4475 7.62336 16.6901V16.669ZM13.4492 14.9282C13.1035 13.9623 13.1278 12.9019 13.5175 11.9531L13.8274 12.048C14.9463 15.5402 16.7692 18.7211 18.2348 22.0708C16.1338 20.0824 14.4991 17.65 13.4492 14.9493V14.9282ZM19.6112 24.5343C18.6157 25.2489 17.6762 26.0389 16.8007 26.8975C17.221 25.0881 18.3242 23.2735 20.2416 22.8304C21.2449 22.9095 21.9016 23.7799 22.6423 24.3602C21.6337 24.3865 20.5935 24.2283 19.6112 24.5343ZM19.3485 16.2628C18.5343 17.1543 18.03 18.278 17.3996 19.3013C17.2262 18.1408 16.806 16.7534 17.7778 15.8144C19.2435 14.1211 21.7072 14.9862 23.5879 15.2869C22.1695 15.5665 20.6986 15.6826 19.3485 16.2365V16.2628ZM28.3683 22.1815C29.0302 20.599 29.9022 18.9743 29.6343 17.1966C29.109 12.4489 27.8745 7.55361 24.9064 3.67639C26.2565 4.50986 27.7431 5.37498 28.4103 6.90476C29.6553 9.64783 29.9863 12.7074 30.4328 15.6562C30.79 17.9984 30.2699 20.5621 28.3683 22.1552V22.1815Z" fill="white"/>
</g>
</svg>
